<svg id="svg2" xmlns="http://www.w3.org/2000/svg" viewBox="0 0 25.11 22.57"><title>heart</title><g id="layer1"><path id="path2417" d="M11.56,21.31a26.2,26.2,0,0,0-3-2.62A53.42,53.42,0,0,1,3.5,14.62,9.57,9.57,0,0,1,0,7,5.83,5.83,0,0,1,.53,4,6.92,6.92,0,0,1,3.64.71a5.29,5.29,0,0,1,3-.71,4.63,4.63,0,0,1,3,.72,6.05,6.05,0,0,1,2.68,3.05l.16.61.39-.85c2.19-4.79,9.16-4.71,11.59.12a10.36,10.36,0,0,1,.17,6.65c-.89,2.41-2.56,4.24-6.43,7a36.74,36.74,0,0,0-5.61,5C12.37,22.84,12.59,22.46,11.56,21.31Z" transform="translate(0)" style="fill:red"/></g></svg>